# xmcd
#
# Track frame offsets:
#	150
#	12130
#	24200
#	37862
#	50497
#	62287
#	79680
#	91355
#	102605
#	116430
#	130707
#	143507
#	157107
#	167340
#	182687
#	193385
#	206367
#	221227
#	231110
#	244050
#	255047
#	265022
#	277675
#	288242
#	297860
#	309697
#	321127
#	330065
#	340730
#
# Disc length: 4705 seconds
#
# Revision: 1
# Processed by: cddbd v1.4PL0 Copyright (c) Steve Scherf et al.
# Submitted via: MusicWizard 6.0.2
#
DISCID=80125f1d
DTITLE=Dean Martin - Lay Some Happiness On Me   Vol. 4
DYEAR=1900
DGENRE=Vocal
TTITLE0=Raining In My Heart
TTITLE1=Sweetheart
TTITLE2=Georgia Sunshine
TTITLE3=A Perfect Mountain
TTITLE4=Marry Me
TTITLE5=For The Good Times
TTITLE6=She's A Little Bit Country
TTITLE7=The Right Kind Of Woman
TTITLE8=I Don't Know What I'm Doing
TTITLE9=The Small Exception Of Me
TTITLE10=Party Dolls And Wine
TTITLE11=Blue Memories
TTITLE12=I Can Give You What You Want Now
TTITLE13=Kiss The World Goodbye
TTITLE14=Just The Other Side Of Nowhere
TTITLE15=Guess Who
TTITLE16=What's Yesterday
TTITLE17=I'm Sitting On Top Of The Worl
TTITLE18=Smile
TTITLE19=When The Red, Red Robin Comes, Bob, Bob Bobbin' Along
TTITLE20=Ramblin' Rose
TTITLE21=Get On With Your Livin'
TTITLE22=I Wonder Who's Kissing Her Now
TTITLE23=It's A Good Day
TTITLE24=At Sundown
TTITLE25=You Made Me Love You (I Didn't Want To Do It)
TTITLE26=Almost Like Being In Love
TTITLE27=I'm Forever Blowing Bubbles
TTITLE28=Amor Mio
EXTD=
EXTT0=
EXTT1=
EXTT2=
EXTT3=
EXTT4=
EXTT5=
EXTT6=
EXTT7=
EXTT8=
EXTT9=
EXTT10=
EXTT11=
EXTT12=
EXTT13=
EXTT14=
EXTT15=
EXTT16=
EXTT17=
EXTT18=
EXTT19=
EXTT20=
EXTT21=
EXTT22=
EXTT23=
EXTT24=
EXTT25=
EXTT26=
EXTT27=
EXTT28=
PLAYORDER=
